<svg id="b4036970-b21f-49d0-a115-68bb1707ade5" data-name="Vertcoin-Logo-Layer" xmlns="http://www.w3.org/2000/svg" viewBox="0 0 63.38 64"><g id="fbbdcc29-1c00-40e5-9c41-2b2e6d352a5b" data-name="Vertcoin-Logo"><g id="f209dae5-ef2f-4c88-af76-d7a57077e691" data-name="Vertcoin-Logo-Group"><path id="e391e2a3-9d76-4346-883b-068396786ce2" data-name="Combined-Shape" d="M54.23,9.19l-.56-.52L31.57,39.59,23.13,28.71H9.39L5.52,33.15h7.19l17.16,22.4a2.52,2.52,0,0,0,1.7.81,2.23,2.23,0,0,0,1.62-.81l27.13-37.9c-.16-.33-.32-.65-.49-1A32.07,32.07,0,0,1,32,64,32,32,0,0,1,32,0,31.45,31.45,0,0,1,54.23,9.19Z" transform="translate(-0.31)" fill="#048657" fill-rule="evenodd"/><path id="b4532697-0745-4c88-9040-6407aaf83f8e" data-name="Vertcoin-Logo-Path" d="M5.52,33.15l3.87-4.44H23.13l8.44,10.88L53.67,8.67a27.9,27.9,0,0,1,3.68,4.08,30,30,0,0,1,3,4.9L33.19,55.55a2.23,2.23,0,0,1-1.62.81,2.52,2.52,0,0,1-1.7-.81L12.71,33.15Z" transform="translate(-0.31)" fill="#fff" fill-rule="evenodd"/></g></g></svg>